<svg xmlns="http://www.w3.org/2000/svg" viewBox="0 0 32 32" width="32" height="32">
  
  <rect width="32" height="32" rx="6" fill="#080807"></rect>

  
  
  <path d="M5 8 C5 8 10 8.5 16 10 L16 25 C10 23.5 5 24 5 24 Z" fill="none" stroke="#c89b4a" stroke-width="1.2" stroke-linejoin="round"></path>
  
  <path d="M27 8 C27 8 22 8.5 16 10 L16 25 C22 23.5 27 24 27 24 Z" fill="none" stroke="#c89b4a" stroke-width="1.2" stroke-linejoin="round"></path>
  
  <line x1="16" y1="10" x2="16" y2="25" stroke="#c89b4a" stroke-width="1.2"></line>

  
  <line x1="21" y1="13" x2="21" y2="20" stroke="#c89b4a" stroke-width="0.9" stroke-linecap="round"></line>
  <line x1="19.5" y1="13" x2="19.5" y2="16" stroke="#c89b4a" stroke-width="0.9" stroke-linecap="round"></line>
  <line x1="22.5" y1="13" x2="22.5" y2="16" stroke="#c89b4a" stroke-width="0.9" stroke-linecap="round"></line>
  <path d="M19.5 16 Q21 17.2 22.5 16" fill="none" stroke="#c89b4a" stroke-width="0.9" stroke-linecap="round"></path>

  
  <line x1="8" y1="14" x2="13" y2="14.5" stroke="#c89b4a" stroke-width="0.7" stroke-linecap="round" opacity="0.6"></line>
  <line x1="8" y1="16.5" x2="13" y2="17" stroke="#c89b4a" stroke-width="0.7" stroke-linecap="round" opacity="0.6"></line>
  <line x1="8" y1="19" x2="11" y2="19.4" stroke="#c89b4a" stroke-width="0.7" stroke-linecap="round" opacity="0.6"></line>
</svg>